<svg width="111" height="150" viewBox="0 0 111 150" fill="none" xmlns="http://www.w3.org/2000/svg">
<path d="M3.75953 15.5872C6.56095 19.8994 9.8683 26.44 10.2154 34.5772C10.5872 43.2944 7.27396 47.083 5.55616 54.6977C1.53463 72.5275 14.1369 76.4255 12.8333 94.7554C11.4367 114.383 -3.82702 121.317 0.907515 135.178C3.33596 142.287 9.27296 146.089 10.5413 146.902C22.7188 154.703 32.8962 145.329 56.9583 145.183C80.4769 145.041 87.2469 153.895 97.3819 147.401C107.242 141.083 109.317 127.268 110.337 120.479C112.371 106.936 108.745 96.019 106.624 90.8327C103.906 93.9012 101.188 96.9697 98.4702 100.038C98.7443 93.9671 98.4173 84.9086 94.8887 74.8242C91.9449 66.4105 89.8059 65.9505 88.5846 59.9253C85.9079 46.7159 94.431 40.2412 94.631 27.9966C94.7428 21.1889 92.2955 11.6563 80.7781 0C79.4085 4.79689 78.0378 9.59495 76.6683 14.3918C71.1254 11.2186 65.5838 8.04424 60.0409 4.87102C58.6338 8.92549 57.2266 12.9788 55.8194 17.0333C50.4001 13.7 44.9808 10.3656 39.5615 7.03238C38.2273 11.0669 36.8918 15.1013 35.5576 19.1346C29.4394 16.2697 23.3212 13.4047 17.2042 10.5397C17.0748 14.2801 16.9454 18.0192 16.816 21.7596C12.4626 19.7029 8.1105 17.6451 3.75953 15.5872Z" fill="#4B95C3"/>
<path d="M98.1109 100.031C94.8871 97.9438 91.575 95.9483 88.4465 93.7211C88.1147 93.4846 87.59 93.6599 87.4029 93.9952C85.2921 97.7697 83.1672 101.536 81.0764 105.322C81.5012 105.267 81.9259 105.213 82.3519 105.157C79.6669 102.222 76.982 99.2851 74.297 96.3496C73.9358 95.9542 73.3064 96.0966 73.0416 96.5119C70.6885 100.193 68.3353 103.874 65.981 107.555C66.3928 107.502 66.8046 107.449 67.2152 107.396C64.2903 104.07 61.3665 100.743 58.4415 97.4167C58.0697 96.9932 57.2626 97.2026 57.1508 97.7579C56.3249 101.821 55.486 105.881 54.6541 109.943C55.0848 109.828 55.5142 109.715 55.9448 109.601C52.1821 106.668 48.4218 103.733 44.6615 100.797C44.245 100.472 43.4873 100.503 43.3625 101.141C42.5766 105.139 41.7906 109.138 41.0059 113.136C41.3894 112.979 41.773 112.824 42.1554 112.667C39.0892 110.414 36.0243 108.16 32.9581 105.907C32.4734 105.55 31.7521 106.03 31.7721 106.587C32.038 114.051 31.1309 121.527 29.0637 128.705C28.1083 132.023 26.9858 135.377 25.3516 138.43C23.9138 141.117 21.8983 143.722 19.031 144.966C16.3072 146.146 12.654 146.157 10.422 143.951C9.73137 143.269 8.66421 144.334 9.35604 145.017C11.5845 147.22 14.7353 147.772 17.7332 147.081C20.9629 146.337 23.5126 144.143 25.3763 141.478C27.4388 138.529 28.7177 135.044 29.8308 131.647C31.0709 127.861 31.991 123.968 32.5816 120.028C33.2487 115.579 33.5123 111.083 33.3476 106.588C32.9522 106.815 32.5569 107.041 32.1616 107.268C35.2289 109.519 38.2962 111.769 41.3636 114.019C41.7554 114.306 42.4225 114.015 42.5131 113.551C43.2955 109.552 44.0779 105.553 44.8592 101.554C44.4262 101.668 43.9932 101.782 43.5602 101.897C47.3241 104.829 51.0879 107.76 54.8506 110.694C55.2671 111.019 56.0119 110.985 56.1413 110.353C56.9732 106.292 57.8003 102.229 58.6392 98.1685C58.2086 98.2827 57.7779 98.3956 57.3485 98.5097C60.2664 101.843 63.1843 105.176 66.1022 108.508C66.4505 108.906 67.0799 108.748 67.3364 108.349C69.6978 104.673 72.0592 100.996 74.4194 97.3202C74.0005 97.3744 73.5817 97.4285 73.164 97.4826C75.843 100.424 78.5221 103.365 81.2012 106.308C81.5494 106.692 82.2307 106.586 82.4766 106.143C84.5756 102.361 86.6405 98.5615 88.7195 94.7683C88.3712 94.86 88.0241 94.9506 87.6758 95.0424C91.0338 96.8967 94.2623 99.018 97.5355 101.018C98.165 101.399 98.7239 100.428 98.1109 100.031Z" fill="black"/>
<path d="M38.3655 33.497C38.4196 34.983 39.5797 36.1655 40.801 36.8961C42.1329 37.6927 43.7106 38.0151 45.2437 37.7727C48.3922 37.275 50.7454 34.2418 50.6995 31.1062C50.1183 31.2639 49.537 31.4215 48.9558 31.578C50.1006 34.2077 53.0644 35.9866 55.9317 35.6866C58.8767 35.3784 61.4322 33.1476 62.0946 30.2508C61.5216 30.4026 60.9486 30.5532 60.3756 30.705C61.5298 31.7898 62.7405 32.9052 64.1736 33.6135C65.7314 34.383 67.368 34.5618 69.0599 34.1594C70.8307 33.7382 72.5367 32.9417 74.2321 32.291C75.1016 31.9569 75.9711 31.6239 76.8406 31.2898C77.7842 30.9274 78.8055 30.6344 79.6597 30.0908C80.6492 29.4614 79.982 28.093 78.8949 28.2766C78.0219 28.4236 77.1936 28.8225 76.3676 29.139C75.5699 29.4449 74.7734 29.7508 73.9756 30.0567C72.3908 30.665 70.8142 31.3392 69.1999 31.8663C67.8575 32.304 66.5432 32.4099 65.2384 31.791C63.9453 31.178 62.8735 30.2108 61.8287 29.2531C61.291 28.7601 60.2803 28.9143 60.1097 29.7073C59.6638 31.7745 57.9084 33.5158 55.7623 33.7417C53.5562 33.9747 51.4619 32.6193 50.5701 30.6356C50.1806 29.7708 48.8028 30.2261 48.8264 31.1074C48.8887 33.4405 47.1827 35.669 44.8719 36.1278C43.7636 36.3478 42.5682 36.089 41.5893 35.5466C40.5468 34.9677 39.8409 34.0571 39.0232 33.2252C38.7961 32.9911 38.3537 33.1593 38.3655 33.497Z" fill="black"/>
<path d="M18.4296 57.937C21.0275 60.3478 25.1314 58.8488 28.0928 58.0817C31.0825 57.3075 35.2981 56.8145 36.6418 53.5613C36.2488 53.5613 35.8558 53.5613 35.464 53.5613C36.1911 55.5438 38.1949 56.7804 40.2844 56.7686C41.3716 56.7627 42.394 56.3968 43.2329 55.7085C43.9954 55.0826 44.7401 53.8742 45.7767 53.7025C46.6344 53.5601 47.2909 54.3378 47.7969 54.9108C48.3734 55.5638 48.9217 56.2933 49.6864 56.7404C50.6018 57.2745 51.7125 57.2345 52.5726 56.6051C53.5327 55.9027 53.9857 54.7896 54.7128 53.8872C55.5517 52.8459 56.7129 52.0612 57.9801 51.6411C59.3379 51.1905 60.698 51.367 62.0805 51.1352C62.5076 51.0634 62.4793 50.4975 62.1899 50.2951C61.1651 49.5774 59.9085 49.6715 58.7261 49.8786C57.5813 50.0798 56.4576 50.5304 55.487 51.1693C54.4975 51.82 53.6703 52.653 53.0209 53.6425C52.5549 54.3519 51.9384 55.7768 50.883 55.6426C50.1794 55.5532 49.6288 54.8214 49.1923 54.3319C48.6275 53.6989 48.0522 53.0059 47.2804 52.6153C46.3544 52.147 45.3002 52.2259 44.4366 52.7989C43.5436 53.3907 42.9541 54.3308 42.0728 54.9273C40.2856 56.1356 37.4183 55.2591 36.6441 53.2354C36.4218 52.653 35.6935 52.6635 35.4664 53.2354C34.9663 54.4955 33.6933 55.2344 32.4932 55.7168C30.9907 56.3203 29.3929 56.7039 27.841 57.1581C25.1219 57.9558 21.4134 59.5018 18.8485 57.5193C18.5555 57.2969 18.1437 57.6722 18.4296 57.937Z" fill="black"/>
<path d="M72.8414 47.2865C73.0696 49.1455 75.0663 49.4267 76.5852 49.0855C78.6266 48.6266 80.6303 47.9159 82.6093 47.2441C83.607 46.9053 84.6954 46.63 85.6472 46.1793C86.1379 45.9464 86.8132 45.1263 85.9049 44.9298C85.4566 44.8321 84.9813 45.0604 84.5718 45.2075C84.0247 45.404 83.4776 45.5981 82.9293 45.791C81.9151 46.1464 80.8986 46.4911 79.8773 46.8229C78.7537 47.1888 77.6312 47.5818 76.497 47.9124C75.5675 48.183 74.078 48.3795 73.7085 47.1712C73.5697 46.717 72.779 46.7723 72.8414 47.2865Z" fill="black"/>
<path d="M17.0122 71.8016C21.0784 74.2007 25.853 73.1688 30.2381 72.55C33.7078 72.0605 37.7881 71.5616 39.8636 68.3531C39.4789 68.3531 39.0941 68.3531 38.7082 68.3531C40.5825 72.157 46.4795 72.8735 49.2291 69.6544C48.8338 69.5497 48.4373 69.445 48.042 69.3414C48.2597 70.6121 49.275 71.524 50.4434 71.957C51.8317 72.4711 53.3354 72.1464 54.659 71.5969C56.2298 70.9451 57.7264 70.0956 59.2347 69.3132C59.996 68.919 60.756 68.5237 61.5173 68.1296C61.9314 67.9142 62.3526 67.7083 62.7621 67.4836C63.1857 67.2518 63.3657 67.08 63.5716 66.6506C63.6669 66.4518 63.6045 66.1435 63.3469 66.0964C63.0092 66.0353 62.7703 65.9941 62.4385 66.1129C62.0938 66.2365 61.7644 66.4388 61.4385 66.6035C60.7419 66.9542 60.0454 67.3048 59.3489 67.6566C58.004 68.3343 56.6627 69.0191 55.3191 69.7015C54.1849 70.2768 52.893 70.918 51.5811 70.771C50.5598 70.6557 49.5962 70.0144 49.4127 68.9649C49.3233 68.4543 48.5561 68.2625 48.2255 68.652C46.0453 71.2192 41.4002 70.678 39.8636 67.6801C39.6259 67.2165 38.9612 67.2754 38.7082 67.6801C36.8892 70.5933 32.8842 70.9533 29.8098 71.4193C27.6625 71.7452 25.4918 72.1876 23.321 72.3076C21.1855 72.4252 19.2453 71.9499 17.2593 71.2157C16.911 71.0851 16.7051 71.6216 17.0122 71.8016Z" fill="black"/>
<path d="M71.4678 61.8796C71.196 63.1738 72.4678 64.0445 73.6538 63.9963C75.2434 63.9327 76.1564 62.3349 76.787 61.0819C76.4447 61.0819 76.1011 61.0819 75.7587 61.0819C76.4847 62.3126 77.9789 62.675 79.3108 62.3996C80.0979 62.2373 80.8321 61.8643 81.538 61.4925C82.1569 61.1666 83.3135 60.8348 83.3511 60.0242C83.3582 59.8794 83.2676 59.7382 83.1464 59.6665C82.597 59.3406 82.0499 59.7841 81.5639 60.05C80.9745 60.3724 80.3874 60.7265 79.7602 60.9748C78.7872 61.3595 77.4271 61.5043 76.787 60.4795C76.5694 60.1312 75.9552 60.0536 75.7587 60.4795C75.3575 61.3443 74.8998 62.4149 73.9833 62.8456C73.3009 63.1656 72.1137 62.8409 72.0819 61.962C72.069 61.6255 71.5431 61.5208 71.4678 61.8796Z" fill="black"/>
<path d="M21.0349 88.9384C22.1903 91.3951 25.6247 92.1563 28.0496 91.4245C29.478 90.9938 30.4145 90.0455 31.4452 89.0243C31.9476 88.5266 32.5289 88.0018 33.2748 87.9748C33.9337 87.9512 34.5573 88.3124 35.115 88.6207C36.3209 89.289 37.6352 90.0596 39.0306 89.4431C39.6612 89.1643 40.126 88.6595 40.5484 88.1312C40.9837 87.5877 41.4096 86.9335 42.0885 86.677C42.8839 86.3758 43.8169 86.5405 44.6429 86.5699C45.7135 86.6087 46.7842 86.557 47.8502 86.4593C49.8904 86.2722 51.9188 85.9487 53.9472 85.6675C55.958 85.3875 57.997 85.1663 59.956 84.6156C60.8455 84.3662 61.7208 84.0415 62.5444 83.6214C63.3586 83.2061 64.2763 82.7496 64.3622 81.7542C64.3799 81.546 64.1787 81.4001 63.994 81.386C63.1904 81.3283 62.6303 81.8895 61.9561 82.2519C61.2526 82.6296 60.5066 82.9108 59.7418 83.1367C58.1299 83.6132 56.458 83.845 54.7979 84.0803C52.8259 84.3591 50.8563 84.6674 48.8785 84.9015C47.8902 85.018 46.8983 85.1074 45.9041 85.1333C44.9947 85.1569 44.0887 85.0651 43.1792 85.078C42.3944 85.0898 41.5885 85.2345 40.9319 85.6875C40.3707 86.0746 39.973 86.6087 39.5565 87.137C39.1883 87.6053 38.7718 88.1689 38.1458 88.2795C37.5399 88.3865 36.9304 88.0583 36.4139 87.783C35.2373 87.1547 34.0302 86.3958 32.6371 86.7193C31.224 87.0476 30.3498 88.3489 29.3615 89.2913C28.3026 90.3008 26.8366 90.6997 25.3976 90.5973C23.8481 90.4867 22.5186 89.6949 21.4102 88.6466C21.2055 88.4548 20.9208 88.6972 21.0349 88.9384Z" fill="black"/>
<path d="M74.6194 79.3585C74.7053 80.4163 75.5736 81.1964 76.569 81.4682C77.0726 81.6058 77.6326 81.607 78.1315 81.4493C78.7504 81.2528 79.1504 80.821 79.6104 80.388C80.7258 79.3362 82.4942 79.1503 83.9261 78.8126C84.7509 78.6185 85.5757 78.4244 86.4004 78.229C87.0864 78.0678 88.2171 77.9902 88.5395 77.2489C88.5971 77.1172 88.6124 76.9301 88.4853 76.8254C87.9629 76.3959 87.3099 76.5783 86.7064 76.7289C85.9592 76.916 85.2121 77.1019 84.465 77.289C83.0908 77.6325 81.6318 77.8796 80.3282 78.4444C79.7634 78.6891 79.2422 79.0126 78.8021 79.4468C78.4209 79.8233 78.1197 80.2716 77.5632 80.3822C76.6078 80.574 75.7925 79.9704 75.3924 79.1491C75.2136 78.7879 74.5865 78.9538 74.6194 79.3585Z" fill="black"/>
<path d="M10.0694 29.752C11.5625 33.4206 11.1448 37.6209 10.0953 41.3413C8.99047 45.2581 7.27268 48.9372 5.94903 52.7775C4.62774 56.612 3.76178 60.7088 4.62421 64.7445C5.43604 68.5401 7.59506 71.8651 9.39051 75.2477C10.42 77.1867 11.3201 79.2034 11.8201 81.3495C12.0649 82.399 12.199 83.4673 12.1743 84.545C12.1625 85.0792 12.1096 85.6063 12.0107 86.1322C11.9096 86.6688 11.9343 87.2076 11.8896 87.7524C11.8578 88.1454 12.3872 88.2124 12.5743 87.9383C12.819 87.5794 13.0955 87.1923 13.2391 86.7794C13.3944 86.3346 13.4238 85.8004 13.4673 85.3345C13.5556 84.3827 13.5073 83.4296 13.3767 82.4849C13.1026 80.4976 12.432 78.5998 11.5919 76.7855C9.93997 73.2182 7.5374 70.012 6.27023 66.2658C3.42293 57.8486 8.83046 50.1985 10.9518 42.3355C11.5295 40.1941 11.8954 37.9457 11.866 35.7243C11.8366 33.5465 11.3354 31.5722 10.3376 29.6402C10.2635 29.4943 10.0059 29.5967 10.0694 29.752Z" fill="black"/>
<path d="M12.7883 92.4822C12.34 93.167 12.4106 94.273 12.333 95.0613C12.2483 95.9119 11.9647 97.0367 12.2836 97.8498C12.3906 98.1227 12.7742 98.2239 12.9389 97.9356C13.3789 97.1626 13.266 96.0461 13.3025 95.1789C13.3378 94.3436 13.5637 93.2623 13.2001 92.4822C13.1213 92.3093 12.8789 92.3446 12.7883 92.4822Z" fill="black"/>
<path d="M71.0531 10.0031C71.599 10.4396 72.0532 10.9715 72.5709 11.4433C73.1156 11.9398 73.7322 12.3692 74.3146 12.821C74.8499 13.2364 75.3853 13.6517 75.9277 14.0576C76.2112 14.2694 76.4936 14.4812 76.7771 14.693C77.0407 14.8894 77.4207 15.0777 77.6196 15.3365C77.9325 15.7436 78.5667 15.8519 78.8597 15.3365C79.2738 14.6071 79.3762 13.6317 79.5762 12.821C79.7892 11.9586 80.0021 11.0973 80.2163 10.2349C80.641 8.51595 81.1163 6.7899 81.4446 5.04975C81.6352 4.03907 80.1786 3.60611 79.8845 4.61914C79.3903 6.31928 79.0326 8.07356 78.6338 9.79842C78.442 10.6267 78.2514 11.4539 78.0596 12.2822C77.8643 13.1258 77.4807 14.1059 77.5207 14.973C77.8243 14.7424 78.1267 14.5118 78.4302 14.2812C78.102 14.1659 77.7937 13.8647 77.5113 13.6658C77.2231 13.4634 76.9348 13.2611 76.6454 13.0587C76.0688 12.654 75.4864 12.2586 74.9017 11.8656C74.3522 11.495 73.8134 11.095 73.2427 10.7585C72.6015 10.3808 71.9061 10.1055 71.2849 9.69957C71.1061 9.58192 70.8802 9.8643 71.0531 10.0031Z" fill="black"/>
<path d="M107.866 106.239C107.506 106.519 107.588 106.938 107.599 107.344C107.616 107.898 107.659 108.444 107.701 108.997C107.779 110.037 107.81 111.079 107.824 112.122C107.852 114.242 107.723 116.371 107.421 118.47C106.815 122.665 105.585 126.783 103.743 130.602C103.232 131.66 102.678 132.694 102.078 133.704C101.761 134.237 101.433 134.762 101.092 135.28C100.749 135.8 100.38 136.264 100.268 136.891C100.182 137.369 100.646 137.793 101.106 137.534C102.051 137.003 102.602 135.795 103.143 134.893C103.73 133.914 104.274 132.911 104.778 131.886C105.77 129.868 106.606 127.77 107.272 125.623C108.612 121.299 109.27 116.747 109.191 112.22C109.17 110.98 109.065 109.741 108.912 108.511C108.875 108.197 108.572 105.69 107.866 106.239Z" fill="black"/>
<path d="M94.8466 145.718C95.2643 145.325 95.449 144.667 95.669 144.146C95.9079 143.577 96.0926 143.056 96.0455 142.436C96.0149 142.031 95.569 141.84 95.2607 142.111C94.8019 142.516 94.5701 143.006 94.3465 143.57C94.1348 144.103 93.8018 144.715 93.8265 145.295C93.85 145.815 94.4618 146.08 94.8466 145.718Z" fill="black"/>
<path d="M50.0341 134.868C50.2788 135.631 50.5059 136.439 50.88 137.15C51.0189 137.413 51.3166 137.478 51.5836 137.436C51.6342 137.427 51.6884 137.398 51.7319 137.373C51.9766 137.231 52.0825 136.939 52.0178 136.67C51.8319 135.891 51.4589 135.134 51.1424 134.4C50.8706 133.769 49.8258 134.22 50.0341 134.868Z" fill="black"/>
<path d="M53.8862 132.687C54.4498 133.564 55.0134 134.439 55.5887 135.308C55.8652 135.726 56.1347 136.151 56.4194 136.564C56.6677 136.923 56.8889 137.294 57.3336 137.398C57.5077 137.438 57.7572 137.345 57.7854 137.141C57.9054 136.286 56.9959 135.417 56.5335 134.757C55.9335 133.901 55.3228 133.053 54.7122 132.206C54.3592 131.715 53.5486 132.161 53.8862 132.687Z" fill="black"/>
<path d="M18.8027 36.5832C19.2992 36.2737 19.7275 35.9043 20.1734 35.5195C20.5852 35.1642 20.9935 34.7924 21.1512 34.2547C21.2229 34.0088 20.9911 33.83 20.7664 33.87C20.2428 33.9629 19.8346 34.3241 19.4545 34.6736C19.031 35.063 18.6215 35.4419 18.2674 35.8902C17.9803 36.2537 18.3415 36.8691 18.8027 36.5832Z" fill="black"/>
<path d="M22.5321 36.7362C22.7333 36.9009 22.8227 37.1115 23.0286 37.2762C23.2263 37.435 23.5357 37.4939 23.7287 37.2762C24.0828 36.8738 24.457 36.4832 24.5699 35.9432C24.6311 35.6478 24.3546 35.4714 24.0969 35.5796C23.5863 35.7961 23.2804 36.2502 22.951 36.6762C23.1769 36.6173 23.4016 36.5573 23.6275 36.4985C23.411 36.3467 23.1804 36.3197 22.9663 36.1726C22.6356 35.9455 22.2156 36.4773 22.5321 36.7362Z" fill="black"/>
</svg>
