<svg width="164" height="150" viewBox="0 0 164 150" fill="none" xmlns="http://www.w3.org/2000/svg">
<path d="M42.4137 79.3772C40.4241 76.0576 40.5528 74.7277 39.1464 61.8798C37.189 43.9963 35.0961 42.8969 37.0656 39.7087C38.3513 37.628 41.0475 35.1758 62.5308 32.4944C75.2178 30.9111 81.562 30.1201 84.175 30.529C102.183 33.3485 121.507 51.3996 125.779 70.4509C126.778 74.902 128.218 80.2634 132.058 86.7711C135.026 91.8001 140.227 96.0702 146.061 95.8128C151.511 95.5728 157.798 91.7491 161.778 95.4789C165.316 98.7945 163.056 104.684 160.388 108.734C151.767 121.822 140.752 133.328 128.052 142.509C119.745 148.515 114.747 150.388 109.558 149.935C95.1043 148.671 85.4164 129.771 83.1788 125.409C77.9045 115.121 80.4009 111.174 74.2498 103.884C71.7387 100.907 67.2701 97.8211 58.3344 91.6472C46.8366 83.7009 44.7693 83.3068 42.4137 79.3772Z" fill="#4B95C3"/>
<path d="M46.4022 44.5808C47.6302 42.3647 52.9313 41.7882 54.7024 44.42C56.4735 47.0531 53.9436 51.7455 51.4271 52.0485C48.5567 52.3944 45.0011 47.1094 46.4022 44.5808Z" fill="black"/>
<path d="M73.629 69.1424C73.3287 69.4133 72.9962 69.5701 72.8688 69.9978C72.7776 70.3048 72.7616 70.6601 72.7428 70.9805C72.7026 71.7085 72.8085 72.4674 73.0163 73.1645C73.4279 74.5441 74.2403 75.8137 75.3437 76.7415C77.5827 78.6265 80.7709 79.1078 83.278 77.4239C85.5048 75.929 86.9796 73.1699 86.7611 70.4604C86.5265 67.5537 84.5462 65.2786 81.7656 64.4661C80.3311 64.0478 78.7089 64.0223 77.273 64.45C75.7486 64.9045 73.8636 65.9918 73.818 67.7924C73.7966 68.6263 74.6184 69.1465 75.3746 68.9789C75.6776 68.9119 75.9457 68.7671 76.2112 68.6102C76.297 68.5592 76.3841 68.5096 76.4712 68.4587C76.2554 68.5847 76.4404 68.4667 76.4954 68.4413C76.8051 68.2951 77.0504 68.1544 77.344 67.9868C77.4553 67.9238 77.5706 67.8674 77.6846 67.8085C77.9862 67.6529 77.5023 67.846 77.8589 67.7401C78.0573 67.6811 78.2517 67.6127 78.4528 67.5631C78.5788 67.5323 78.7062 67.5068 78.8322 67.48C78.8765 67.4706 79.1969 67.4197 78.9985 67.4478C78.7598 67.4813 79.2666 67.4277 79.2465 67.429C79.3511 67.4223 79.4556 67.4183 79.5602 67.417C79.8216 67.413 80.0818 67.4264 80.3418 67.4491C80.0415 67.4237 80.3767 67.4532 80.4531 67.4679C80.5805 67.4934 80.7078 67.5175 80.8352 67.5497C81.0363 67.5993 81.2347 67.661 81.4305 67.7267C81.7241 67.8272 81.5485 67.7656 81.4801 67.7374C81.5981 67.7883 81.7134 67.846 81.8273 67.905C82.074 68.035 82.3207 68.1812 82.5419 68.3514C82.3515 68.204 82.7403 68.5432 82.8047 68.6062C82.8771 68.6786 82.9468 68.755 83.0152 68.8314C83.3356 69.1921 82.9441 68.7121 83.1063 68.9467C83.4375 69.424 83.526 69.6358 83.648 70.0903C83.8571 70.8733 83.8102 71.6817 83.5233 72.5813C83.282 73.3375 82.8476 74.0561 82.2349 74.6527C81.6664 75.2078 80.9183 75.6301 80.1045 75.7387C79.2331 75.8553 78.2973 75.5912 77.4969 75.0938C76.5611 74.5133 75.7714 73.5775 75.3464 72.5599C75.1627 72.1188 75.0407 71.6308 75.0112 71.1548C74.9938 70.8666 75.0474 70.5797 75.0394 70.2941C75.0327 70.0608 74.971 69.8785 74.8517 69.6814C74.538 69.1612 74.8168 69.7565 74.7297 69.4374C74.5943 68.9346 73.991 68.8153 73.629 69.1424Z" fill="black"/>
<path d="M83.5462 53.5529C83.8331 55.3709 84.7475 57.0575 85.5278 58.7172C86.2826 60.3194 87.024 61.9282 87.7533 63.5424C89.2254 66.8043 90.7672 70.034 92.2125 73.308C95.099 79.8506 97.7469 86.4911 100.214 93.2012C100.911 95.097 101.591 96.9981 102.253 98.9059C102.571 99.8203 102.883 100.736 103.193 101.652C103.536 102.671 103.784 103.816 104.406 104.699C105.162 105.774 107.062 105.482 107.027 103.988C107.004 102.991 106.648 102.113 106.33 101.178C106.032 100.302 105.732 99.4261 105.426 98.552C104.845 96.8828 104.249 95.219 103.642 93.5592C102.396 90.1605 101.083 86.7874 99.7164 83.4356C96.9733 76.704 94.0841 69.9925 90.8343 63.4874C89.9333 61.6842 88.972 59.9091 88.0161 58.1354C87.0414 56.3241 86.1204 54.3506 84.6161 52.9281C84.1214 52.4589 83.451 52.9429 83.5462 53.5529Z" fill="black"/>
<path d="M106.132 79.042C106.022 79.3732 105.788 79.7244 105.597 80.0167C105.363 80.372 105.231 80.7259 105.113 81.1322C104.875 81.9527 104.736 82.7691 104.688 83.6218C104.609 85.043 104.788 86.4815 105.337 87.7994C106.339 90.2046 108.585 92.2532 111.343 92.0695C114.023 91.8912 116.531 89.8427 117.076 87.172C117.647 84.3686 116.389 81.5491 114.119 79.8733C112.865 78.9468 111.309 78.4749 109.758 78.4347C108.998 78.4146 108.139 78.4655 107.409 78.6894C106.51 78.9669 106.011 79.6762 105.51 80.4149C105.227 80.8318 105.488 81.5934 106.02 81.6698C106.508 81.7408 106.953 81.9379 107.445 81.9862C108.025 82.0438 108.485 81.9057 109.017 81.891C109.839 81.8695 110.705 81.9996 111.409 82.316C112.209 82.6753 112.772 83.1794 113.177 83.8189C113.617 84.5134 113.818 85.1127 113.816 85.8608C113.815 86.499 113.572 87.2001 113.149 87.6815C112.614 88.2875 112.079 88.6414 111.266 88.7634C111.437 88.7379 110.957 88.7661 110.879 88.7634C110.8 88.7607 110.738 88.7661 110.489 88.7004C110.116 88.6039 109.938 88.5127 109.553 88.2553C109.001 87.8866 108.489 87.2068 108.147 86.4949C107.715 85.594 107.6 84.4209 107.628 83.3671C107.647 82.6968 107.672 82.0237 107.707 81.3534C107.744 80.6374 107.483 79.947 107.561 79.2324C107.659 78.3811 106.378 78.302 106.132 79.042Z" fill="black"/>
<path d="M48.8089 45.1466C48.0822 44.3771 47.3315 43.6316 46.5914 42.8741C45.8835 42.1502 45.0442 41.5361 44.2505 40.906C42.6001 39.5975 40.9109 38.3386 39.1787 37.14C35.7452 34.7656 32.1427 32.6634 28.3981 30.8159C24.549 28.9162 20.531 27.4749 16.5853 25.8031C13.0177 24.2921 9.51715 22.45 6.80627 19.6278C4.49893 17.2253 2.89278 14.1095 3.02015 10.8423C3.12874 8.04022 4.48687 5.09471 7.04357 3.72586C10.3377 1.96284 14.2632 3.42956 17.2329 5.16442C20.602 7.13122 23.5878 9.82468 26.3858 12.5235C29.1959 15.2344 31.8236 18.1517 34.1859 21.2608C35.3832 22.8361 36.5214 24.457 37.598 26.1181C38.6947 27.8128 39.6707 29.5771 40.7366 31.2892C41.2688 32.1432 41.8172 32.9369 42.4433 33.7266C43.1605 34.6329 44.5508 33.6408 44.2881 32.6527C43.7384 30.5827 42.698 28.7177 41.596 26.8944C40.514 25.1046 39.361 23.3577 38.1396 21.659C35.6902 18.2523 32.9887 15.0239 30.0432 12.0341C27.1138 9.06048 23.9471 6.22491 20.5176 3.83579C17.0572 1.42522 12.8568 -0.542914 8.54246 0.135478C4.76438 0.729405 1.92748 3.56229 0.685992 7.0843C-0.574261 10.6573 -0.0299359 14.5587 1.76123 17.8461C5.98576 25.5993 14.9939 28.3504 22.6439 31.4192C26.6955 33.0455 30.5835 35.0163 34.3736 37.1749C36.2519 38.2447 38.0927 39.3816 39.8919 40.5802C41.7193 41.7989 43.4274 43.2026 45.2547 44.4106C46.1624 45.0112 47.0579 45.6293 47.9441 46.2607C48.6239 46.7488 49.3452 45.7137 48.8089 45.1466Z" fill="black"/>
<path d="M39.8829 54.8962C40.021 56.434 40.0129 57.9651 40.1108 59.5028C40.2087 61.0326 40.5063 62.5851 40.7476 64.0987C41.2343 67.1488 41.8738 70.1828 42.8297 73.1229C43.7615 75.988 45.0379 78.7713 46.695 81.2905C48.4392 83.9437 50.6178 86.2591 52.9828 88.3666C55.3974 90.5185 58.0158 92.429 60.5175 94.4749C62.8946 96.4175 65.163 98.4916 67.3014 100.694C71.4844 105.001 75.166 109.775 78.2777 114.908C80.0488 117.83 81.6375 120.864 83.0251 123.986C83.7022 125.511 84.3497 127.046 85.012 128.577C85.3485 129.356 85.6596 130.144 85.9787 130.93C86.1449 131.339 86.3031 131.769 86.523 132.152C86.7254 132.505 87.0311 132.765 87.3167 133.049C87.5419 133.272 87.9937 133.189 88.0608 132.852C88.2082 132.115 88.2297 131.549 88.0701 130.804C87.9039 130.026 87.6518 129.259 87.4226 128.499C86.9815 127.039 86.4506 125.615 85.8794 124.201C84.7358 121.373 83.3482 118.633 81.8507 115.978C78.8515 110.664 75.2504 105.679 71.1586 101.153C69.1355 98.9152 66.9864 96.7916 64.7219 94.7966C62.3556 92.7118 59.8364 90.8148 57.3749 88.8466C54.8638 86.8396 52.3728 84.7709 50.2679 82.3282C48.3279 80.0771 46.8049 77.4909 45.6103 74.776C44.2294 71.6375 43.2534 68.3353 42.5026 64.993C42.1285 63.3318 41.8095 61.66 41.5185 59.9828C41.367 59.1127 41.1244 58.2654 40.9072 57.41C40.6913 56.556 40.5546 55.6926 40.4098 54.8251C40.3575 54.5302 39.8561 54.5959 39.8829 54.8962Z" fill="black"/>
<path d="M104.261 140.567C104.177 141.242 104.764 141.83 105.184 142.295C105.623 142.783 106.122 143.208 106.652 143.597C107.693 144.362 108.907 144.921 110.156 145.25C111.423 145.584 112.736 145.656 114.033 145.486C115.43 145.302 116.87 144.964 117.376 143.493C117.487 143.172 117.248 142.786 116.928 142.705C116.373 142.566 115.846 142.535 115.286 142.672C114.761 142.799 114.256 142.981 113.721 143.074C112.732 143.244 111.663 143.202 110.679 143.008C109.641 142.803 108.661 142.434 107.762 141.874C107.322 141.6 106.92 141.289 106.547 140.931C106.129 140.529 105.807 139.979 105.208 139.847C104.689 139.731 104.323 140.072 104.261 140.567Z" fill="black"/>
<path d="M134.51 112.911C135.579 113.177 136.824 113.027 137.921 113.035C138.96 113.043 140.278 113.219 140.923 112.213C141.057 112.004 141.068 111.666 140.923 111.459C140.238 110.475 138.975 110.674 137.921 110.719C136.831 110.766 135.56 110.652 134.51 110.953C133.569 111.224 133.521 112.664 134.51 112.911Z" fill="black"/>
<path d="M135.116 117.889C136.232 118.093 137.308 118.058 138.44 118.04C139.208 118.028 140.978 118.217 140.963 117.007C140.947 115.771 139.205 116.068 138.44 116.116C137.309 116.188 136.214 116.222 135.116 116.515C134.471 116.686 134.403 117.759 135.116 117.889Z" fill="black"/>
</svg>
