<svg width="148" height="150" viewBox="0 0 148 150" fill="none" xmlns="http://www.w3.org/2000/svg">
<path d="M6.79287 38.3529C4.52895 69.3047 2.26391 100.255 0 131.207C4.45658 131.596 8.91317 131.985 13.3697 132.374C16.3088 137.907 19.2478 143.44 22.1868 148.973C56.0482 141.939 89.9097 134.903 123.771 127.868C115.475 94.1036 107.18 60.3407 98.8839 26.5765C68.1865 30.5016 37.4902 34.4267 6.79287 38.3529Z" fill="#4B95C3"/>
<path d="M39.9784 40.3704C39.8665 39.5788 39.828 38.7985 39.6369 38.0194C39.4311 37.1803 39.2524 36.3379 39.0071 35.5101C38.5378 33.927 38.1194 32.328 37.7552 30.7165C37.5822 29.951 37.4284 29.1809 37.3006 28.4063C37.278 28.2661 37.2554 28.1258 37.2339 27.9845C37.226 27.9313 37.1322 27.2313 37.1977 27.7481C37.1401 27.2924 37.0937 26.8356 37.0541 26.3776C36.915 24.7876 36.8856 23.1909 37.0406 21.601C37.0473 21.5275 37.0406 21.1735 37.0926 21.126C37.079 21.2278 37.0654 21.3296 37.0507 21.4325C37.0654 21.3273 37.0813 21.221 37.0982 21.1159C37.1412 20.8524 37.1887 20.5889 37.243 20.3265C37.3741 19.6944 37.5381 19.0691 37.7337 18.4539C37.8163 18.1972 37.9034 17.9416 37.9961 17.6883C38.0515 17.5368 38.1126 17.3864 38.1691 17.2349C38.367 16.7056 37.9463 17.7166 38.1804 17.2032C38.4473 16.6152 38.7289 16.0362 39.05 15.4753C39.3418 14.9664 39.6595 14.4711 40.0022 13.9951C40.061 13.9136 40.1447 13.8254 40.191 13.7384C39.9095 14.2597 40.0915 13.865 40.208 13.7225C40.407 13.4783 40.614 13.2397 40.8277 13.0079C41.2167 12.5861 41.6294 12.188 42.0659 11.816C42.1847 11.7153 42.3057 11.6192 42.4255 11.5208C42.8496 11.1737 41.9811 11.8363 42.4289 11.522C42.6822 11.3444 42.9344 11.1691 43.1968 11.0063C43.4365 10.8582 43.6819 10.7179 43.9318 10.5868C44.063 10.5178 44.642 10.3391 44.6951 10.2215C44.5979 10.2633 44.5006 10.3041 44.4034 10.3459C44.4995 10.3074 44.5945 10.2701 44.6917 10.2351C44.789 10.1989 44.8862 10.165 44.9835 10.1322C45.3284 10.0157 45.6778 9.91618 46.0329 9.83476C46.138 9.81102 46.7204 9.62669 46.8075 9.6855C46.7091 9.69793 46.6096 9.7115 46.5112 9.72394C46.6254 9.71037 46.7396 9.69793 46.855 9.68663C47.0257 9.67079 47.1976 9.65836 47.3684 9.65044C47.6522 9.63687 47.9361 9.63461 48.2199 9.64252C48.3895 9.64705 48.558 9.65609 48.7265 9.6674C48.8023 9.67306 49.4921 9.7002 49.0771 9.69341C48.67 9.68663 49.1924 9.71377 49.2569 9.72507C49.4231 9.75335 49.5882 9.78614 49.7533 9.82119C50.0281 9.88 50.3017 9.94785 50.572 10.0247C50.8988 10.1175 51.2211 10.2215 51.54 10.338C51.6768 10.3877 51.9007 10.4341 52.0172 10.5212C51.9301 10.4839 51.8431 10.4465 51.7571 10.4104C51.8623 10.4556 51.9663 10.5019 52.0704 10.5494C53.2498 11.0888 54.5163 11.7651 55.4956 12.6268C55.0207 12.2095 55.7071 12.8043 55.8394 12.9163C56.1131 13.1458 56.3799 13.3822 56.6423 13.6242C57.1681 14.1093 57.6725 14.6193 58.1542 15.1485C58.5749 15.6099 58.9684 16.0916 59.3642 16.5756C59.5983 16.8617 59.0204 16.1097 59.3653 16.5779C59.4693 16.7192 59.5756 16.8594 59.6785 17.0031C59.8957 17.3027 60.106 17.6069 60.3129 17.9145C61.9741 20.3831 63.3322 23.0428 64.5264 25.7635C64.7786 26.338 64.4065 25.465 64.5535 25.8269C64.6395 26.0372 64.7266 26.2464 64.8114 26.4579C64.9697 26.8491 65.1223 27.2427 65.2727 27.6373C65.5611 28.3984 65.828 29.1673 66.1028 29.934C66.6772 31.5353 67.2144 33.1478 67.7085 34.7762C68.1835 36.3424 68.5804 37.9346 69.0768 39.494C69.3347 40.3037 69.5665 41.1246 69.8684 41.9196C70.0075 42.2883 70.1534 42.6535 70.3049 43.0165C70.5209 43.5367 70.8511 43.9008 71.2288 44.3068C71.7852 44.905 72.7339 44.5612 72.9657 43.8488C73.4927 42.2272 73.0879 40.5151 72.8425 38.8641C72.6107 37.3059 72.268 35.7645 71.9231 34.2266C71.2367 31.1677 70.4338 28.1507 69.3347 25.2117C67.1623 19.388 64.0797 13.5631 59.2534 9.50343C56.9148 7.53693 54.2121 5.89158 51.203 5.20517C48.1102 4.50067 45.0061 4.81843 42.1225 6.11775C37.1423 8.36243 33.8132 13.709 32.7457 18.9198C31.9631 22.7397 32.256 26.6614 33.1121 30.4429C33.5406 32.3348 34.1253 34.178 34.7868 36.0009C35.1419 36.979 35.5456 37.9221 35.9911 38.863C36.2433 39.3956 36.4774 39.8966 36.8178 40.376C36.9874 40.6158 37.2814 41.0862 37.4918 41.4175C37.8525 41.9863 38.5615 42.2509 39.1903 41.9739C39.862 41.6799 40.0757 41.0636 39.9784 40.3704Z" fill="#4B95C3"/>
<path d="M12.1514 36.1659C12.1582 36.1659 12.1582 36.1547 12.1514 36.1547C12.1435 36.1547 12.1435 36.1659 12.1514 36.1659Z" fill="black"/>
<path d="M8.01831 39.5041C8.57355 46.7708 9.66932 54.0058 10.6215 61.2295C11.5668 68.3967 12.5111 75.5638 13.4565 82.731C15.3461 97.0619 17.1452 111.404 19.0506 125.734C19.5867 129.765 20.1227 133.797 20.6587 137.828C20.9267 139.844 21.1947 141.859 21.4627 143.876C21.5916 144.846 21.7205 145.817 21.8494 146.788C21.9863 147.819 22.2859 148.786 22.5811 149.781C22.6806 150.116 23.1793 150.05 23.1883 149.698C23.2098 148.806 23.2833 147.897 23.1657 147.01C23.0425 146.077 22.9192 145.143 22.7959 144.21C22.5585 142.419 22.3221 140.627 22.0847 138.836C21.6063 135.215 21.1268 131.594 20.6485 127.973C19.7031 120.824 18.7725 113.674 17.7615 106.535C15.7305 92.1937 13.8873 77.8255 11.9717 63.4697C11.4379 59.4677 10.9166 55.4634 10.3546 51.466C9.79032 47.4459 9.26109 43.4281 8.5057 39.4397C8.45255 39.1671 7.99683 39.2259 8.01831 39.5041Z" fill="black"/>
<path d="M13.2146 132.614C13.2802 132.126 13.3956 131.641 13.3933 131.148C13.391 130.661 13.3707 130.17 13.3492 129.683C13.3062 128.706 13.2192 127.729 13.1536 126.752C13.0179 124.76 12.8822 122.769 12.7465 120.778C12.4773 116.832 12.2139 112.887 11.9323 108.942C11.368 101.053 10.8037 93.1628 10.2394 85.272C10.0834 83.0929 9.92732 80.9138 9.7724 78.7347C9.61408 76.5126 9.5632 74.2623 9.02153 72.0956C8.90958 71.6489 8.31024 71.7903 8.2684 72.1974C8.06598 74.1537 8.2718 76.101 8.40976 78.0584C8.54998 80.0498 8.68907 82.0412 8.82929 84.0326C9.10634 87.978 9.38226 91.9223 9.65932 95.8678C10.2123 103.759 10.7664 111.648 11.3476 119.538C11.5082 121.717 11.6688 123.896 11.8282 126.075C11.9108 127.203 11.9843 128.33 12.077 129.457C12.12 129.984 12.189 130.509 12.2478 131.034C12.3122 131.606 12.5 132.136 12.6571 132.687C12.751 133.022 13.1751 132.915 13.2146 132.614Z" fill="black"/>
<path d="M67.5654 37.5105C73.5678 41.8167 79.5703 46.1217 85.5727 50.4279C85.2368 58.0972 84.901 65.7664 84.5651 73.4356C90.2396 69.3952 95.9141 65.3548 101.59 61.3143C104.888 68.434 108.186 75.5537 111.484 82.6733C114.556 74.5721 117.628 66.4709 120.7 58.3697C129.619 59.0482 138.539 59.7278 147.459 60.4063C142.327 54.1517 137.195 47.8971 132.062 41.6426C135.291 35.6729 138.519 29.7045 141.748 23.7348C135.694 24.2675 129.642 24.7989 123.589 25.3316C121.965 16.8877 120.341 8.44386 118.717 0C114.252 6.33261 109.786 12.6663 105.32 18.999C97.2824 16.0758 89.2445 13.1526 81.2066 10.2306C84.2915 18.7558 87.3775 27.2811 90.4624 35.8064C82.8293 36.3741 75.1974 36.9417 67.5654 37.5105Z" fill="black"/>
<path d="M97.7452 31.1993C97.372 31.1541 97.1357 31.0263 96.758 31.1586C96.4074 31.2807 96.0897 31.4877 95.8036 31.7206C95.2065 32.208 94.7824 32.8797 94.5947 33.6294C94.1842 35.2714 94.9747 36.8828 96.3769 37.7694C97.7746 38.6537 99.5455 38.5598 100.845 37.5466C102.133 36.5424 102.823 34.7727 102.285 33.185C101.752 31.6087 99.7603 29.7666 97.9928 30.5299C97.4908 30.747 97.51 31.6064 97.9928 31.8292C98.6091 32.1141 99.2741 32.1164 99.8293 32.5518C100.304 32.9249 100.674 33.4847 100.761 34.0886C100.941 35.3279 99.9118 36.6148 98.6804 36.7607C97.4161 36.9111 96.1801 35.8809 95.9902 34.6461C95.8884 33.9845 96.1213 33.3603 96.4413 32.7938C96.6076 32.4986 96.8292 32.2351 97.0825 32.0112C97.3177 31.8032 97.5213 31.4696 97.7723 31.2966C97.8176 31.266 97.7972 31.205 97.7452 31.1993Z" fill="#4B95C3"/>
<path d="M105.409 23.9722C105.537 26.3424 106.067 28.7205 106.459 31.0591C106.861 33.4655 107.337 35.8628 107.779 38.2624C108.65 42.9893 109.522 47.7161 110.401 52.4418C110.648 53.7705 110.895 55.0993 111.143 56.4291C111.266 57.094 111.39 57.7578 111.513 58.4227C111.646 59.134 111.701 59.7763 112.192 60.3406C112.565 60.7681 113.196 60.4888 113.361 60.0319C113.574 59.4428 113.413 58.8751 113.301 58.2791C113.19 57.6888 113.08 57.0986 112.969 56.5083C112.747 55.3277 112.526 54.1471 112.304 52.9665C111.861 50.6054 111.418 48.2431 110.972 45.8831C110.077 41.1619 109.182 36.4418 108.287 31.7206C108.043 30.4315 107.765 29.148 107.497 27.8634C107.214 26.5098 106.964 25.1358 106.534 23.8207C106.342 23.2338 105.372 23.2983 105.409 23.9722Z" fill="#4B95C3"/>
<path d="M116.531 45.0702C117.082 45.3506 117.779 45.2047 118.372 45.3913C118.97 45.5802 119.538 45.994 119.831 46.5572C120.384 47.6202 119.879 49.1411 118.786 49.6477C117.719 50.1419 116.244 49.5878 115.796 48.4898C115.569 47.9311 115.619 47.2707 115.861 46.7257C116.125 46.132 116.84 45.7272 116.965 45.0837C117.03 44.7547 116.872 44.4821 116.558 44.3668C115.729 44.0615 114.952 44.922 114.563 45.5417C114.15 46.1987 113.924 47.0106 113.942 47.7875C113.982 49.4758 115.133 50.8622 116.736 51.3383C118.368 51.8246 120.081 51.2003 121.012 49.78C121.889 48.4457 121.891 46.6329 120.894 45.3698C120.343 44.6721 119.547 44.1892 118.676 44.0106C117.985 43.8692 116.75 43.8489 116.417 44.6359C116.352 44.7863 116.362 44.9853 116.531 45.0702Z" fill="#4B95C3"/>
<path d="M51.178 91.6237C52.976 110.411 54.7729 129.198 56.5709 147.985C56.6783 149.103 57.6271 149.95 58.75 149.929C81.1573 149.514 103.565 149.1 125.971 148.685C127.16 148.664 128.107 147.679 128.08 146.488L126.737 86.215C126.71 84.9858 125.66 84.0302 124.433 84.1184C100.675 85.8373 76.9178 87.555 53.1614 89.2739C51.9594 89.3621 51.0626 90.4217 51.178 91.6237Z" fill="black"/>
<path d="M56.7901 115.276C57.351 115.318 57.9152 115.425 58.4761 115.395C59.0393 115.364 59.6002 115.335 60.1622 115.287C61.2862 115.192 62.4103 115.102 63.5332 115.004C65.8197 114.803 68.104 114.559 70.3883 114.336C74.8844 113.898 79.3794 113.444 83.8733 112.992C92.8996 112.083 101.93 111.213 110.957 110.304C113.504 110.047 116.051 109.79 118.599 109.534C119.835 109.409 121.071 109.285 122.307 109.159C123.644 109.025 124.849 108.692 126.122 108.275C126.574 108.127 126.458 107.533 126.015 107.484C124.885 107.357 123.78 107.218 122.644 107.335C121.52 107.452 120.396 107.567 119.273 107.684C116.987 107.92 114.703 108.155 112.418 108.392C107.923 108.855 103.425 109.31 98.9325 109.793C89.9074 110.763 80.8755 111.671 71.8493 112.63C69.3015 112.9 66.7549 113.172 64.2072 113.442C62.97 113.573 61.734 113.731 60.4981 113.88C59.8784 113.954 59.2609 114.034 58.6435 114.128C57.9718 114.23 57.3555 114.445 56.7019 114.632C56.3332 114.736 56.4282 115.249 56.7901 115.276Z" fill="#4B95C3"/>
<path d="M106.566 90.1391C106.35 91.9903 106.506 93.9183 106.617 95.774C106.729 97.6523 106.84 99.5306 106.952 101.409C107.17 105.092 107.418 108.773 107.661 112.454C108.146 119.819 108.667 127.18 109.175 134.543C109.466 138.751 109.756 142.959 110.047 147.165C110.119 148.215 111.763 148.223 111.69 147.165C110.657 132.288 109.715 117.402 108.541 102.535C108.374 100.432 108.208 98.3274 108.042 96.2241C107.88 94.1784 107.785 92.0355 107.264 90.0441C107.155 89.6303 106.609 89.7637 106.566 90.1391Z" fill="#4B95C3"/>
<path d="M107.276 108.41C105.622 107.863 103.824 107.987 102.216 107.227C100.926 106.617 99.6907 105.508 99.5018 104.019C99.3322 102.677 100.043 101.215 101.477 100.997C103.213 100.734 104.62 102.242 105.478 103.562C106.508 105.145 107.198 106.975 107.445 108.849C107.539 109.56 108.632 109.882 108.82 109.036C109.217 107.241 109.831 105.509 110.689 103.883C111.347 102.637 112.502 100.198 114.266 100.495C115.643 100.727 115.534 102.679 115.252 103.668C114.852 105.073 113.97 106.304 112.837 107.215C111.512 108.282 109.919 108.785 108.234 108.834C107.341 108.86 107.354 110.151 108.234 110.212C111.966 110.471 115.632 107.572 116.632 104.049C117.074 102.492 116.962 100.412 115.462 99.4489C113.487 98.179 111.444 99.9488 110.41 101.541C109.003 103.704 108.017 106.149 107.47 108.666C107.92 108.666 108.37 108.666 108.82 108.666C108.536 106.573 107.773 104.556 106.559 102.821C105.423 101.197 103.806 99.7984 101.696 99.916C99.9078 100.015 98.6594 101.404 98.466 103.135C98.2681 104.913 99.2881 106.48 100.71 107.46C102.494 108.69 105.164 109.191 107.275 108.719C107.438 108.681 107.416 108.456 107.276 108.41Z" fill="#4B95C3"/>
<path d="M101.985 125.572C101.792 125.231 101.484 124.976 101.282 124.634C101.09 124.308 100.949 123.972 100.863 123.602C100.692 122.865 100.75 122.08 100.987 121.365C101.566 119.617 103.051 118.35 104.397 117.184C105.786 115.981 107.161 114.737 107.935 113.029C108.301 112.221 108.542 111.378 108.653 110.497C108.753 109.702 108.922 108.477 108.246 107.889C108.008 107.682 107.652 107.705 107.48 107.987C107.221 108.413 107.277 108.886 107.288 109.363C107.301 109.868 107.267 110.374 107.169 110.869C106.986 111.809 106.631 112.692 106.103 113.492C105.054 115.081 103.483 116.248 102.204 117.639C101.047 118.897 100.019 120.402 99.8948 122.156C99.8416 122.9 99.966 123.666 100.265 124.35C100.526 124.947 101.054 125.76 101.755 125.868C101.923 125.894 102.077 125.737 101.985 125.572Z" fill="#4B95C3"/>
<path d="M108.283 108.988C107.905 109.449 108.473 110.445 108.674 110.913C109.004 111.689 109.411 112.434 109.924 113.105C111.047 114.573 112.447 115.377 114.218 115.845C115.086 116.074 115.993 116.273 116.736 116.807C117.33 117.234 117.754 117.851 118.05 118.513C118.727 120.024 118.641 121.621 118.891 123.214C119.02 124.039 120.228 123.774 120.276 123.027C120.329 122.182 120.184 121.281 120.056 120.447C119.928 119.605 119.718 118.782 119.38 117.998C118.685 116.385 117.432 115.311 115.75 114.811C114.814 114.533 113.813 114.412 112.929 113.981C112.189 113.622 111.573 113.076 111.048 112.448C110.469 111.756 110.007 110.98 109.525 110.221C109.407 110.039 108.652 108.539 108.283 108.988Z" fill="#4B95C3"/>
<path d="M66.7364 139.691C67.4715 140.204 68.2099 140.705 68.9653 141.189C69.6472 141.627 70.3992 142.28 71.1862 142.493C71.6476 142.617 71.9348 142.057 71.6352 141.722C71.0912 141.114 70.1662 140.74 69.4685 140.327C68.6984 139.872 67.9204 139.438 67.1322 139.012C66.6821 138.77 66.3259 139.405 66.7364 139.691Z" fill="#4B95C3"/>
<path d="M70.5691 139.827C70.7715 140.162 71.1933 140.313 71.5427 140.453C71.9464 140.616 72.4168 140.859 72.8545 140.723C72.9642 140.689 73.0501 140.542 72.9721 140.435C72.7108 140.077 72.28 139.995 71.8729 139.877C71.4839 139.764 70.9931 139.6 70.5985 139.757C70.5702 139.769 70.5521 139.798 70.5691 139.827Z" fill="#4B95C3"/>
<path d="M117.95 84.84C118.636 85.0413 119.217 84.7857 119.903 84.6602C120.639 84.5256 121.402 84.4306 122.15 84.5064C123.52 84.6466 124.538 85.4099 125.084 86.6629C125.581 87.805 125.711 89.0715 125.763 90.3041C125.836 92.0151 125.843 93.7317 125.882 95.4437C126.04 102.501 126.227 109.558 126.4 116.615C126.447 118.567 126.496 120.519 126.543 122.47C126.567 123.444 126.56 124.426 126.619 125.398C126.675 126.32 126.79 127.371 127.167 128.216C127.256 128.415 127.52 128.322 127.583 128.162C127.887 127.38 127.919 126.459 127.974 125.624C128.037 124.662 127.938 123.661 127.915 122.697C127.87 120.819 127.825 118.943 127.779 117.066C127.689 113.313 127.599 109.559 127.508 105.805C127.42 102.127 127.337 98.4483 127.239 94.7698C127.194 93.069 127.205 91.3569 127.075 89.6607C126.974 88.3456 126.773 86.9739 126.116 85.808C125.364 84.4748 124.022 83.5859 122.501 83.4321C121.673 83.3485 120.818 83.4525 120.013 83.6549C119.249 83.8471 118.395 84.0043 117.896 84.6466C117.846 84.7134 117.859 84.8129 117.95 84.84Z" fill="#4B95C3"/>
<path d="M126.284 134.656C126.243 135.336 126.327 136.007 126.412 136.681C126.475 137.186 126.439 137.888 126.961 138.142C127.103 138.211 127.249 138.196 127.366 138.09C127.802 137.698 127.577 137.042 127.496 136.536C127.39 135.865 127.283 135.194 127.055 134.553C126.907 134.134 126.311 134.204 126.284 134.656Z" fill="#4B95C3"/>
<path d="M108.487 16.1854C109.137 15.8959 109.502 15.3203 109.922 14.7685C110.399 14.1409 110.882 13.5167 111.34 12.8743C112.253 11.5943 113.142 10.2995 114.028 8.99901C115.795 6.40038 117.561 3.80288 119.329 1.20425C118.916 1.14997 118.503 1.09682 118.091 1.04254C118.773 4.75956 119.473 8.47318 120.165 12.1879C120.507 14.0267 120.85 15.8665 121.191 17.7052C121.362 18.6246 121.534 19.5439 121.705 20.4644C121.869 21.3431 121.894 22.4479 122.414 23.1908C122.655 23.5335 123.239 23.5256 123.354 23.0676C123.575 22.1776 123.229 21.2074 123.064 20.3219C122.892 19.4026 122.72 18.4832 122.55 17.5639C122.199 15.6878 121.85 13.8129 121.499 11.9369C120.799 8.18595 120.107 4.43275 119.397 0.68294C119.28 0.0677722 118.456 0.0779504 118.159 0.521233C116.407 3.12891 114.656 5.73659 112.905 8.34427C112.05 9.61644 111.201 10.8909 110.375 12.1834C109.953 12.8449 109.554 13.5189 109.152 14.1918C108.785 14.8058 108.374 15.3769 108.349 16.1096C108.349 16.1831 108.428 16.2125 108.487 16.1854Z" fill="#4B95C3"/>
<path d="M128.92 25.578C130.379 25.6097 131.923 25.1641 133.354 24.9131C134.083 24.7853 134.811 24.6575 135.54 24.5297C136.217 24.411 137.053 24.4121 137.525 23.8467C137.702 23.6341 137.699 23.3073 137.436 23.1558C136.826 22.8052 136.153 23.0303 135.504 23.1513C134.741 23.2926 133.979 23.4351 133.215 23.5764C132.489 23.711 131.762 23.8467 131.036 23.9813C130.285 24.1204 129.488 24.2244 128.776 24.5071C128.228 24.7254 128.268 25.5644 128.92 25.578Z" fill="#4B95C3"/>
<path d="M133.103 43.1365C133.131 43.1726 133.158 43.2077 133.186 43.2439C133.069 43.3411 133.081 43.5119 133.136 43.634C133.773 45.0442 134.912 46.2982 135.861 47.5093C136.857 48.7793 137.853 50.0503 138.849 51.3202C140.842 53.86 142.839 56.3976 144.838 58.9318C145.336 59.5628 146.218 58.6728 145.723 58.0475C143.742 55.5472 141.761 53.0481 139.774 50.5524C138.793 49.3198 137.811 48.0872 136.831 46.8546C135.856 45.6299 134.886 44.2062 133.641 43.2439C133.536 43.1625 133.374 43.1037 133.251 43.1941C133.218 43.1579 133.185 43.1229 133.152 43.0867C133.12 43.0596 133.09 43.1071 133.103 43.1365Z" fill="#4B95C3"/>
<path d="M109.194 68.3933C109.317 68.3718 109.408 68.4114 109.536 68.3684C109.701 68.313 109.857 68.2237 110.006 68.1366C110.292 67.9692 110.6 67.8019 110.845 67.578C111.098 67.3473 110.834 66.8497 110.497 66.9809C110.168 67.1087 109.858 67.3168 109.565 67.5124C109.434 67.5995 109.297 67.6978 109.183 67.8075C109.076 67.9104 109.07 68.0224 108.99 68.1298C108.888 68.2689 109.058 68.417 109.194 68.3933Z" fill="#4B95C3"/>
<path d="M111.222 70.0364C111.774 69.9878 112.206 69.7537 112.563 69.3127C112.858 68.9485 113.235 68.3582 113.034 67.8776C112.975 67.7329 112.771 67.6255 112.644 67.7747C112.384 68.0823 112.332 68.4939 112.082 68.8174C111.829 69.1453 111.465 69.4303 111.118 69.6508C110.957 69.7525 111.005 70.0556 111.222 70.0364Z" fill="#4B95C3"/>
<path d="M34.4695 56.0051C34.4333 55.8128 34.3259 55.4826 34.4356 55.3006C34.3327 55.287 34.2287 55.2734 34.1258 55.2599C34.2264 55.6647 34.5102 55.9644 34.759 56.2912C35.0542 56.6779 35.3516 57.0624 35.6524 57.4446C36.2608 58.2181 36.8963 58.9678 37.5431 59.7097C38.8345 61.191 40.1734 62.6306 41.5575 64.0238C44.3077 66.7943 47.2987 69.3409 50.4006 71.7088C51.286 72.3839 52.185 73.0387 53.0987 73.6765C53.5285 73.9761 53.9604 74.2724 54.3947 74.5642C54.8594 74.8763 55.314 75.2494 55.8614 75.393C56.3284 75.5152 56.5681 74.9746 56.3001 74.6399C56.0219 74.2916 55.6397 74.0836 55.2733 73.8382C54.838 73.5464 54.4049 73.2513 53.9751 72.9527C53.196 72.4111 52.4259 71.8547 51.6615 71.2927C50.0896 70.137 48.5562 68.9293 47.0635 67.6729C44.1358 65.2089 41.3449 62.5639 38.726 59.7753C37.9864 58.9882 37.2706 58.1808 36.548 57.379C36.1986 56.9912 35.8503 56.601 35.5054 56.2086C35.1627 55.8174 34.8461 55.3085 34.3768 55.0676C34.2162 54.9851 34.0115 55.209 34.171 55.3345C34.3531 55.477 34.3711 55.814 34.4096 56.022C34.4153 56.0616 34.4775 56.0447 34.4695 56.0051Z" fill="black"/>
<path d="M45.052 73.7286C45.6423 74.1628 46.2314 74.5937 46.8409 75.0008C47.3034 75.3095 47.8055 75.8195 48.3856 75.729C48.51 75.7098 48.5881 75.5481 48.5519 75.4361C48.3766 74.8866 47.6687 74.6593 47.196 74.3924C46.5594 74.0328 45.9114 73.7026 45.26 73.3724C45.0192 73.2491 44.8405 73.5725 45.052 73.7286Z" fill="black"/>
</svg>
